<svg width="24" height="24" viewBox="0 0 24 24" fill="none" xmlns="http://www.w3.org/2000/svg">
<path d="M10.5542 6.24075L7.1712 2.33599C6.78121 1.88601 6.06621 1.88801 5.61321 2.34199L2.83123 5.12882C2.00323 5.95777 1.76623 7.1887 2.24523 8.17564C5.10683 14.1002 9.88524 18.8851 15.8062 21.7548C16.7922 22.2338 18.0221 21.9968 18.8501 21.1679L21.6581 18.355C22.1131 17.9001 22.1141 17.1811 21.6601 16.7911L17.7401 13.4263C17.3301 13.0743 16.6932 13.1203 16.2822 13.5323L14.9182 14.8982C14.8483 14.9714 14.7564 15.0197 14.6565 15.0356C14.5566 15.0514 14.4543 15.0341 14.3652 14.9862C12.1356 13.7024 10.2862 11.8506 9.00519 9.61955C8.95722 9.53031 8.93985 9.42779 8.95575 9.32772C8.97164 9.22766 9.01993 9.13557 9.09319 9.06558L10.4532 7.70466C10.8652 7.29069 10.9102 6.65073 10.5542 6.23975V6.24075Z" stroke="#192A32" stroke-width="2" stroke-linecap="round" stroke-linejoin="round"/>
</svg>
