<svg xmlns="http://www.w3.org/2000/svg" width="24" height="24" fill="none"><path fill="#fff" d="M6.329 16.884c0 .548.448.996.999.996h1.141v2.822c0 .714.575 1.298 1.28 1.298.708 0 1.28-.581 1.28-1.298v-2.825h1.993V20.7c0 .715.575 1.299 1.28 1.299.708 0 1.28-.582 1.28-1.299v-2.822h1.142c.55 0 .999-.447.999-.995V7.618H6.329v9.265ZM14.701 2.82l1.052-1.524c.061-.089.047-.208-.035-.267-.082-.056-.2-.028-.26.061l-1.092 1.584a6.45 6.45 0 0 0-2.364-.44 6.45 6.45 0 0 0-2.363.44L8.547 1.092c-.061-.089-.178-.12-.26-.06-.083.056-.097.173-.036.267l1.053 1.523C7.63 3.6 6.458 5.074 6.308 6.797H17.7c-.154-1.725-1.329-3.2-3-3.977ZM9.597 5.222a.63.63 0 1 1 0-1.262.63.63 0 0 1 0 1.262Zm4.886 0a.63.63 0 1 1 0-1.261.63.63 0 0 1 0 1.26Zm5.237 2.36c-.708 0-1.28.581-1.28 1.298v5.072c0 .715.574 1.298 1.28 1.298.708 0 1.28-.58 1.28-1.298V8.878a1.284 1.284 0 0 0-1.28-1.296Zm-15.44 0C3.572 7.582 3 8.163 3 8.88v5.072c0 .715.574 1.298 1.28 1.298.708 0 1.28-.58 1.28-1.298V8.878c0-.717-.574-1.296-1.28-1.296Z"/></svg>