<svg xmlns="http://www.w3.org/2000/svg" width="24" height="24" fill="none"><path fill="#fff" d="M17.377 12.57c-.01-1.64.698-2.876 2.126-3.787-.799-1.201-2.007-1.863-3.6-1.99-1.509-.125-3.16.923-3.763.923-.639 0-2.1-.88-3.248-.88C6.52 6.875 4 8.822 4 12.783c0 1.17.204 2.38.611 3.625.545 1.64 2.509 5.656 4.558 5.591 1.07-.026 1.828-.798 3.222-.798 1.353 0 2.054.798 3.248.798 2.067-.031 3.844-3.682 4.361-5.326-2.772-1.373-2.623-4.02-2.623-4.104ZM14.97 5.237C16.131 3.79 16.026 2.474 15.992 2c-1.026.063-2.211.733-2.886 1.558-.744.884-1.181 1.978-1.088 3.211 1.108.089 2.12-.51 2.953-1.531Z"/></svg>