<svg width="24" height="24" viewBox="0 0 24 24" fill="none" xmlns="http://www.w3.org/2000/svg">
<path d="M5 18.1781V22L6.515 21.0775L11.277 18.1781H16C17.103 18.1781 18 17.2678 18 16.1484V8.02968C18 6.91031 17.103 6 16 6H4C2.897 6 2 6.91031 2 8.02968V16.1484C2 17.2678 2.897 18.1781 4 18.1781H5ZM4 8.02968H16V16.1484H10.723L7 18.4156V16.1484H4V8.02968Z" fill="#192A32"/>
<path d="M20 2H8C6.897 2 6 2.897 6 4H18C19.103 4 20 4.897 20 6V14C21.103 14 22 13.103 22 12V4C22 2.897 21.103 2 20 2Z" fill="#192A32"/>
</svg>
