<svg width="32" height="32" viewBox="0 0 32 32" fill="none" xmlns="http://www.w3.org/2000/svg">
<path d="M7 20L8.4201 18.5917L9.84019 20L8.4201 21.4083L7 20Z" fill="#192A32"/>
<path d="M22 20L23.4201 18.5917L24.8402 20L23.4201 21.4083L22 20Z" fill="#192A32"/>
<path d="M32 8.59325V2H0V8.59325H3.76562V15.1937L2.10713 16.1336H2.10719C0.807438 16.87 0 18.2498 0 19.7344C0 21.2189 0.807438 22.5987 2.10713 23.3352L12.0173 28.9511C13.2281 29.6373 14.6053 30 16 30C17.3947 30 18.7719 29.6373 19.9827 28.9511L29.8929 23.3352C31.1926 22.5987 32 21.2189 32 19.7344C32 18.2498 31.1926 16.87 29.8929 16.1336L28.2344 15.1937V8.59325H32ZM1.875 3.85944H30.125V6.73381H1.875V3.85944ZM19.9827 10.5176C18.7719 9.83145 17.3947 9.46873 16 9.46873C14.6053 9.46873 13.2281 9.83145 12.0173 10.5176L9.40625 11.9973V8.59325H22.5938V11.9973L19.9827 10.5176ZM5.64062 8.59325H7.53125V13.0598L5.64062 14.1312V8.59325ZM30.125 19.7344C30.125 20.5533 29.6796 21.3144 28.9626 21.7207L19.0524 27.3367C18.1244 27.8625 17.0689 28.1406 16 28.1406C14.9311 28.1406 13.8756 27.8626 12.9476 27.3367L3.03737 21.7207C2.32037 21.3144 1.875 20.5533 1.875 19.7344C1.875 18.9154 2.32037 18.1543 3.03737 17.748L12.9476 12.1321C13.8756 11.6062 14.9311 11.3282 16 11.3282C17.0689 11.3282 18.1244 11.6062 19.0524 12.1321L28.9626 17.748C29.6796 18.1543 30.125 18.9154 30.125 19.7344ZM26.3594 14.1312L24.4688 13.0598V8.59325H26.3594V14.1312Z" fill="#192A32"/>
<path d="M15.4998 15C12.5674 16.8616 10.987 18.6471 11.0001 20.4905C11.0001 22.2225 12.3287 23.6317 13.9619 23.6317C14.1721 23.6317 14.3799 23.6076 14.5821 23.5616V25H16.4175V23.5617C16.6197 23.6077 16.8274 23.6317 17.0377 23.6317C18.6709 23.6317 19.9995 22.2226 19.9995 20.4905C20.0346 18.5108 18.138 16.6818 15.4998 15ZM17.0377 21.685C16.4343 21.7591 15.8472 20.8449 15.4997 20.4402C15.1001 20.8836 14.658 21.6999 13.9618 21.685C13.3407 21.685 12.8354 21.1491 12.8354 20.4905C12.8354 19.4441 14.1893 18.2334 15.4997 17.3068C16.8102 18.2334 18.1641 19.4441 18.1641 20.4905C18.1641 21.1491 17.6588 21.685 17.0377 21.685Z" fill="#192A32"/>
</svg>
