<svg width="32" height="32" viewBox="0 0 32 32" fill="none" xmlns="http://www.w3.org/2000/svg">
<path d="M4 22H10V24H4V22Z" fill="#192A32"/>
<path d="M11 22H13V24H11V22Z" fill="#192A32"/>
<path d="M15 22H21V24H15V22Z" fill="#192A32"/>
<path d="M23 22H25V24H23V22Z" fill="#192A32"/>
<path d="M32 5H3.76562V8.81939H0V28H28.2344V24.1806H32V5ZM5.64062 6.90177H30.125V14.6401H28.2344V8.81939H5.64062V6.90177ZM28.2344 16.5418H30.125V18.4595H28.2344V16.5418ZM26.3594 26.0982H1.875V10.7212H26.3594V26.0982ZM28.2344 22.2788V20.3612H30.125V22.2788H28.2344Z" fill="#192A32"/>
<path d="M12 13H4V19H12V13ZM10.0062 17.0055H5.99377V14.9945H10.0062V17.0055Z" fill="#192A32"/>
</svg>
