<svg width="32" height="32" viewBox="0 0 32 32" fill="none" xmlns="http://www.w3.org/2000/svg">
<path d="M11 27H13V29H11V27Z" fill="#192A32"/>
<path d="M29.2958 24.2079C28.9108 22.4475 27.5793 21.047 25.821 20.5529L20.7202 19.1194L20.2923 16.9906C21.6734 15.8365 22.5588 14.0679 22.5588 12.0881V8.48725C23.1865 8.06121 24.012 7.15999 24.012 5.36349C24.083 2.60016 21.5657 -0.0646158 18.6931 0.00119422C17.7952 0.00119422 16.7968 0.196124 15.7397 0.402429C13.4733 0.908535 11.2416 1.15321 9.36264 0.0438176C8.17764 3.03521 8.52553 5.84504 10.4411 8.26982V12.0881C10.4411 14.0678 11.3266 15.8365 12.7077 16.9906L12.2797 19.1195L7.17883 20.5529C5.42053 21.0471 4.08906 22.4476 3.70411 24.208L2 32H31L29.2958 24.2079ZM16.5 27.0887C16.2542 26.6011 15.9631 26.1353 15.6294 25.6992L15.0127 24.8935L16.5 23.0012L17.9873 24.8935L17.3706 25.6992C17.0368 26.1353 16.7458 26.6011 16.5 27.0887ZM14.1091 26.8278C14.8451 27.7895 15.3176 28.9349 15.4821 30.1251H9.6095V21.8196L10.1583 21.6654L14.1091 26.8278ZM18.8909 26.8278L22.8417 21.6654L23.3905 21.8196V30.1251H17.5179C17.6823 28.9349 18.1549 27.7895 18.8909 26.8278ZM20.8796 21.1141L19.1749 23.3415L17.9737 21.8131L19.9854 20.8628L20.8796 21.1141ZM11.8432 6.99318C10.8399 5.70398 10.4051 4.08804 10.6284 2.54435C12.4303 2.95977 14.3668 2.58191 16.11 2.24161C17.0727 2.05368 17.9821 1.87612 18.6932 1.87612C20.5443 1.87612 22.1082 3.47313 22.1082 5.36349C22.1082 5.65023 22.0762 5.88879 22.0253 6.08772C21.3585 4.97182 19.9568 4.31685 18.5693 4.42603C17.3025 6.00522 15.3123 7.00393 13.2429 6.99312H11.8432V6.99318ZM12.3449 8.86811H13.2428C15.5537 8.86811 17.761 7.95352 19.3744 6.34302C20.1072 6.51045 20.655 7.15874 20.655 7.93065V12.0882C20.655 14.5233 18.791 16.5043 16.4999 16.5043C14.2088 16.5043 12.3448 14.5233 12.3448 12.0882V8.86811H12.3449ZM16.5 18.3793C17.2214 18.3793 17.9135 18.2474 18.5557 18.0062L18.8223 19.3328L16.5 20.4299L14.1777 19.3328L14.4444 18.0062C15.0865 18.2474 15.7786 18.3793 16.5 18.3793ZM13.0146 20.8628L15.0263 21.8131L13.825 23.3415L12.1203 21.1141L13.0146 20.8628ZM5.56528 24.6027C5.80193 23.5206 6.62044 22.6597 7.70131 22.3559L7.70568 22.3546V30.1251H4.3575L5.56528 24.6027ZM25.2943 30.1251V22.3546L25.2986 22.3559C26.3795 22.6596 27.198 23.5206 27.4347 24.6027L28.6424 30.1251H25.2943Z" fill="#192A32"/>
</svg>
