<svg width="32" height="32" viewBox="0 0 32 32" fill="none" xmlns="http://www.w3.org/2000/svg">
<path d="M8 24H25V26H8V24Z" fill="#192A32"/>
<path d="M9 18L10.4201 16.5917L11.8402 18L10.4201 19.4083L9 18Z" fill="#192A32"/>
<path d="M20 18L21.4201 16.5917L22.8402 18L21.4201 19.4083L20 18Z" fill="#192A32"/>
<path d="M12 16.5L15.5 21L19 16.5L15.5 12L12 16.5ZM15.5 17.9918L14.3397 16.5L15.5 15.0082L16.6603 16.5L15.5 17.9918Z" fill="#192A32"/>
<path d="M32 12.2657C32 10.7235 30.7348 9.46878 29.1797 9.46878C27.6411 9.46878 26.3872 10.6971 26.3606 12.2166L24.5181 12.8251C23.1089 13.2905 21.5576 12.6965 20.8293 11.4129L18.1203 6.6381C18.5556 6.14573 18.8203 5.50162 18.8203 4.79689C18.8203 3.25468 17.5551 2 16 2C14.4449 2 13.1797 3.25468 13.1797 4.79689C13.1797 5.50156 13.4444 6.14573 13.8797 6.6381L11.1707 11.4129C10.4424 12.6965 8.89087 13.2903 7.482 12.8251L5.63938 12.2166C5.61281 10.697 4.35888 9.46872 2.82031 9.46872C1.26519 9.46878 0 10.7235 0 12.2657C0 13.6739 1.05519 14.8419 2.42256 15.0342L3.55956 20.6719H2.45019V22.5313H3.76562V28.1406H2.45019V30H29.5498V28.1406H28.2344V22.5313H29.5498V20.6719H28.4404L29.5774 15.0342C30.9448 14.8419 32 13.6739 32 12.2657ZM29.1797 11.3282C29.7009 11.3282 30.125 11.7488 30.125 12.2657C30.125 12.7826 29.7009 13.2031 29.1797 13.2031C28.6584 13.2031 28.2344 12.7826 28.2344 12.2657C28.2344 11.7488 28.6584 11.3282 29.1797 11.3282ZM16 3.85949C16.5212 3.85949 16.9453 4.28003 16.9453 4.79696C16.9453 5.31388 16.5212 5.73442 16 5.73442C15.4788 5.73442 15.0547 5.31388 15.0547 4.79696C15.0547 4.28003 15.4788 3.85949 16 3.85949ZM1.875 12.2657C1.875 11.7488 2.29906 11.3282 2.82031 11.3282C3.34156 11.3282 3.76562 11.7488 3.76562 12.2657C3.76562 12.7826 3.34156 13.2031 2.82031 13.2031C2.29906 13.2031 1.875 12.7826 1.875 12.2657ZM26.3594 28.1406H5.64062V22.5313H26.3594V28.1406ZM5.47169 20.6719L4.26106 14.6688C4.564 14.4895 4.83006 14.2554 5.04594 13.9805L6.88963 14.5893C9.039 15.3256 11.659 14.4014 12.8049 12.3247L15.5131 7.55127C15.6714 7.57873 15.8339 7.59385 16.0001 7.59385C16.1662 7.59385 16.3288 7.57873 16.4871 7.55127L19.1953 12.3247C20.3623 14.3926 22.8665 15.322 25.1106 14.5893L26.9543 13.9806C27.1701 14.2555 27.4361 14.4896 27.7391 14.6689L26.5285 20.6719H5.47169V20.6719Z" fill="#192A32"/>
</svg>
