<svg width="24" height="24" viewBox="0 0 24 24" fill="none" xmlns="http://www.w3.org/2000/svg">
<path d="M9 17.942C9.68695 18.8042 10.3122 19.7124 10.8711 20.6601C11.3484 21.5514 11.5473 22.1557 11.8961 23.2296C12.11 23.8229 12.3033 24 12.7189 24C13.1719 24 13.3773 23.6987 13.5361 23.2328C13.8658 22.2187 14.1245 21.4447 14.5326 20.7134C15.3334 19.3015 16.3286 18.0468 17.3064 16.841C17.5711 16.4997 19.2825 14.5115 20.053 12.9427C20.053 12.9427 21 11.2194 21 8.81267C21 6.56139 20.0661 5 20.0661 5L17.3773 5.70921L15.7444 9.94501L15.3404 10.5291L15.2597 10.6349L15.1522 10.7674L14.9636 10.9789L14.6941 11.2443L13.2401 12.411L9.60474 14.4784L9 17.942Z" fill="#34A853"/>
<path d="M5 11.7938C5.89583 13.758 7.62331 15.4847 8.79208 17L15 9.94079C15 9.94079 14.1254 11.0388 12.5389 11.0388C10.7718 11.0388 9.34419 9.68417 9.34419 7.97604C9.34419 6.80469 10.0783 6 10.0783 6L5.8642 7.08397L5 11.7937V11.7938Z" fill="#FBBC04"/>
<path d="M15.0479 6.51721e-05C17.1342 0.662793 18.9199 2.05411 20 4.10574L14.9797 10C14.9797 10 15.7225 9.1492 15.7225 7.94029C15.7225 6.12507 14.1711 4.76899 12.4951 4.76899C10.9102 4.76899 10 5.90741 10 5.90741V2.19411L15.0479 0V6.51721e-05Z" fill="#4285F4"/>
<path d="M6 2.84502C7.24152 1.44337 9.42612 0 12.4379 0C13.8991 0 15 0.361992 15 0.361992L9.97095 6H6.4078L6 2.84508V2.84502Z" fill="#1A73E8"/>
<path d="M4.8377 12C4.8377 12 4 10.447 4 8.19707C4 6.07062 4.87317 4.21185 5.99362 3L10 6.19179L4.8377 12Z" fill="#EA4335"/>
</svg>
