<svg width="32" height="32" viewBox="0 0 32 32" fill="none" xmlns="http://www.w3.org/2000/svg">
<g clip-path="url(#clip0_2_637)">
<path d="M26 7C27.6542 7 29 5.72918 29 4.16714C29 1.8453 26 0 26 0C26 0 23 1.8453 23 4.16714C23 5.72918 24.3458 7 26 7ZM25.9995 2.57628C26.5223 3.12842 27.0055 3.78696 27.0055 4.16714C27.0055 4.69071 26.5545 5.11666 26 5.11666C25.4455 5.11666 24.9945 4.69071 24.9945 4.16714C24.9945 3.78338 25.4733 3.12999 25.9995 2.57628Z" fill="#192A32"/>
<path d="M15.9579 22.4087H17.0421C17.5879 22.4087 18.0318 22.8187 18.0318 23.3227C18.0318 23.8266 17.5878 24.2366 17.0421 24.2366H15.9386C15.4121 24.2366 14.9838 23.8411 14.9838 23.3549H13.0157C13.0157 24.7106 14.1039 25.8356 15.5159 26.0253V27H17.4841V26.0233C18.9062 25.8257 20 24.69 20 23.3227C20 21.8166 18.6731 20.5913 17.0422 20.5913H15.958C15.4122 20.5913 14.9683 20.1813 14.9683 19.6774C14.9683 19.1735 15.4123 18.7635 15.958 18.7635H17.0173C17.5637 18.7635 18.0082 19.1739 18.0082 19.6785H19.9764C19.9764 18.3185 18.8947 17.1878 17.4841 16.9804V16H15.5159V16.9767C14.0938 17.1743 13 18.31 13 19.6773C13 21.1834 14.3269 22.4087 15.9579 22.4087Z" fill="#192A32"/>
<path d="M24.6338 11.2968C24.5833 8.34487 22.8666 6.48356 20.4378 5.40631C20.2008 5.80781 20.052 6.29181 19.6206 6.63781C19.3726 6.82275 19.2038 6.80469 19.0117 6.71569C18.7076 6.57469 18.552 6.42869 18.8926 5.06969C19.4684 1.93912 17.0369 0.78975 15.2209 0C15.0501 1.31737 15.2148 2.51144 13.7601 3.49187C11.9694 4.44744 12.178 5.80375 12.3026 6.61413C12.4087 7.30388 12.4189 7.51806 11.9617 7.86181C11.8628 7.93606 11.6314 8.11006 11.0996 7.86281C10.4064 7.50588 10.2273 7.16838 9.77769 6.74594C8.30381 7.92912 7.42738 9.45969 7.37025 11.2968H0V31.9999H32V11.2968H24.6338ZM9.87644 9.33C10.7439 9.85706 11.9781 10.1955 13.0886 9.36044C14.4633 8.327 14.2709 7.07631 14.1559 6.32912C14.0726 5.76525 13.9822 5.4885 14.6429 5.146C15.6677 4.59919 16.2445 3.70625 16.5661 2.93963C16.5704 2.94412 16.5748 2.94875 16.5791 2.95331C17.0636 3.46613 17.2255 4.00931 17.074 4.61381C16.9173 5.23887 16.7815 5.85125 16.8398 6.46994C16.9241 7.36306 17.4024 8.03631 18.2233 8.41675C19.1576 8.8585 20.2514 8.66281 21.0415 7.88588C22.1191 8.67806 22.7499 9.94275 22.7586 11.2967H9.2445C9.27819 10.5835 9.49775 9.89519 9.87644 9.33ZM23.5312 20.3084L22.5859 21.2537V16.9372H24.6414C24.9248 17.7381 25.5607 18.3741 26.3617 18.6575V24.6384C25.5607 24.9218 24.9248 25.5578 24.6414 26.3587H22.5859V22.0147L23.5312 22.96L24.8571 21.6342L23.5312 20.3084ZM9.4165 21.2561L8.46875 20.3084L7.14294 21.6342L8.46875 22.9601L9.4165 22.0123V26.3587H7.36094C7.07756 25.5578 6.44163 24.9218 5.64062 24.6384V18.6575C6.44163 18.3741 7.07756 17.7381 7.36094 16.9372H9.4165V21.2561ZM9.4165 15.0621H5.64625V15.9996C5.64625 16.5196 5.22319 16.9427 4.70312 16.9427H3.76562V26.3531H4.70312C5.22319 26.3531 5.64625 26.7762 5.64625 27.2962V28.2337H9.4165V30.1249H1.875V13.1718H9.4165V15.0621ZM20.7109 30.1249H11.2915V13.1718H20.7109V30.1249ZM30.125 30.1249H22.5859V28.2337H26.3561V27.2962C26.3561 26.7762 26.7792 26.3531 27.2992 26.3531H28.2367V16.9427H27.2992C26.7792 16.9427 26.3561 16.5196 26.3561 15.9996V15.0621H22.5859V13.1718H30.125V30.1249Z" fill="#192A32"/>
</g>
<defs>
<clipPath id="clip0_2_637">
<rect width="32" height="32" fill="white"/>
</clipPath>
</defs>
</svg>
