<svg width="32" height="32" viewBox="0 0 32 32" fill="none" xmlns="http://www.w3.org/2000/svg">
<path d="M32 24.3984V2H0V24.3984H11.2969V27.2031C11.2969 27.72 10.8728 28.1406 10.3516 28.1406H8.46875V30H23.5312V28.1406H21.6484C21.1272 28.1406 20.7031 27.72 20.7031 27.2031V24.3984H32ZM1.875 3.85944H30.125V18.8046H1.875V3.85944ZM13.0084 28.1406C13.1139 27.8473 13.1719 27.5318 13.1719 27.2031V24.3984H18.8281V27.2031C18.8281 27.5318 18.8861 27.8473 18.9916 28.1406H13.0084ZM1.875 22.539V20.6641H30.125V22.539H1.875Z" fill="#192A32"/>
<path d="M7 11L8.4201 9.59169L9.84019 11L8.4201 12.4083L7 11Z" fill="#192A32"/>
<path d="M22 11L23.4201 9.59169L24.8402 11L23.4201 12.4083L22 11Z" fill="#192A32"/>
<path d="M15.4998 6C12.5674 7.86161 10.987 9.64711 11.0001 11.4904C11.0001 13.2224 12.3287 14.6316 13.9619 14.6316C14.1721 14.6316 14.3799 14.6076 14.5821 14.5616V16H16.4175V14.5616C16.6197 14.6077 16.8274 14.6317 17.0377 14.6317C18.6709 14.6317 19.9995 13.2225 19.9995 11.4905C20.0346 9.51078 18.138 7.68181 15.4998 6ZM17.0377 12.685C16.4343 12.759 15.8473 11.8449 15.4998 11.4402C15.1001 11.8836 14.658 12.6998 13.9619 12.685C13.3408 12.685 12.8355 12.1491 12.8355 11.4904C12.8355 10.444 14.1893 9.23339 15.4998 8.3068C16.8103 9.23339 18.1641 10.444 18.1641 11.4904C18.1641 12.1491 17.6588 12.685 17.0377 12.685Z" fill="#192A32"/>
</svg>
