<svg width="20" height="20" viewBox="0 0 20 20" fill="none" xmlns="http://www.w3.org/2000/svg">
<path d="M4.63637 18C4.4676 18 4.30573 17.9342 4.18639 17.8169C4.06705 17.6997 4 17.5408 4 17.375V3.6249C4.00002 3.51629 4.02885 3.40956 4.08366 3.31523C4.13847 3.2209 4.21736 3.14223 4.31256 3.08697C4.40775 3.0317 4.51597 3.00175 4.62654 3.00007C4.73711 2.9984 4.84621 3.02504 4.9431 3.07739L17.6706 9.95244C17.7703 10.0064 17.8535 10.0857 17.9115 10.182C17.9694 10.2783 18 10.3881 18 10.4999C18 10.6118 17.9694 10.7216 17.9115 10.8179C17.8535 10.9142 17.7703 10.9935 17.6706 11.0475L4.9431 17.9225C4.84914 17.9733 4.74363 18 4.63637 18Z" fill="#F04C44"/>
</svg>
