<svg width="32" height="32" viewBox="0 0 32 32" fill="none" xmlns="http://www.w3.org/2000/svg">
<path d="M22.5 2H10.5C9.83797 2.00353 9.20399 2.28756 8.73586 2.79037C8.26773 3.29318 8.00329 3.97412 8 4.68518V28.3148C8.00329 29.0259 8.26773 29.7068 8.73586 30.2096C9.20399 30.7124 9.83797 30.9965 10.5 31H22.5C23.162 30.9965 23.796 30.7124 24.2641 30.2096C24.7323 29.7068 24.9967 29.0259 25 28.3148V4.68518C24.9967 3.97412 24.7323 3.29318 24.2641 2.79037C23.796 2.28756 23.162 2.00353 22.5 2ZM9 7.37037H24V25.6296H9V7.37037ZM10.5 3.07407H22.5C22.8978 3.07407 23.2794 3.24382 23.5607 3.54596C23.842 3.8481 24 4.25789 24 4.68518V6.2963H9V4.68518C9 4.25789 9.15804 3.8481 9.43934 3.54596C9.72064 3.24382 10.1022 3.07407 10.5 3.07407ZM22.5 29.9259H10.5C10.1022 29.9259 9.72064 29.7562 9.43934 29.454C9.15804 29.1519 9 28.7421 9 28.3148V26.7037H24V28.3148C24 28.7421 23.842 29.1519 23.5607 29.454C23.2794 29.7562 22.8978 29.9259 22.5 29.9259Z" fill="#192A32" stroke="#192A32"/>
</svg>
