<svg width="32" height="32" viewBox="0 0 32 32" fill="none" xmlns="http://www.w3.org/2000/svg">
<path d="M17 16H19V18H17V16Z" fill="#192A32"/>
<path d="M21 16H23V18H21V16Z" fill="#192A32"/>
<path d="M13 16H15V18H13V16Z" fill="#192A32"/>
<path d="M9 16H11V18H9V16Z" fill="#192A32"/>
<path d="M21.6484 6H10.3516C4.64369 6 0 10.7103 0 16.5C0 22.2897 4.64369 27 10.3516 27H21.6484C27.3563 27 32 22.2897 32 16.5C32 10.7103 27.3563 6 21.6484 6ZM11.2891 23.1804H15.0625V25.0981H11.2891V23.1804ZM16.9375 23.1804H20.7109V25.0981H16.9375V23.1804ZM21.6484 21.2785H10.3516C7.75394 21.2785 5.64062 19.1349 5.64062 16.5C5.64062 13.8651 7.75394 11.7215 10.3516 11.7215H21.6484C24.2461 11.7215 26.3594 13.8651 26.3594 16.5C26.3594 19.1349 24.2461 21.2785 21.6484 21.2785ZM16.9375 9.81962V7.90189H20.7109V9.81962H16.9375ZM15.0625 9.81962H11.2891V7.90189H15.0625V9.81962ZM1.875 16.5C1.875 12.0804 5.17963 8.42953 9.41406 7.95476V9.88765C6.22506 10.3506 3.76562 13.1393 3.76562 16.5C3.76562 19.8607 6.22506 22.6494 9.41406 23.1124V25.0453C5.17963 24.5705 1.875 20.9196 1.875 16.5ZM22.5859 25.0452V23.1124C25.7749 22.6493 28.2344 19.8606 28.2344 16.4999C28.2344 13.1392 25.7749 10.3506 22.5859 9.88752V7.95463C26.8204 8.42953 30.125 12.0804 30.125 16.5C30.125 20.9196 26.8204 24.5705 22.5859 25.0452Z" fill="#192A32"/>
</svg>
