<svg width="144" height="23" viewBox="0 0 144 23" fill="none" xmlns="http://www.w3.org/2000/svg">
<path d="M13.8721 8.74121L14.2217 9.61719L15.1631 9.68164L20.1973 10.0264L16.3174 13.2969L15.6025 13.8994L15.8281 14.8066L17.0557 19.7334L12.8018 17.0439L12 16.5381L11.1982 17.0439L6.94336 19.7334L8.17188 14.8066L8.39746 13.8994L7.68262 13.2969L3.80176 10.0264L8.83691 9.68164L9.77832 9.61719L10.1279 8.74121L12 4.04785L13.8721 8.74121Z" fill="#FFC512" stroke="#FFC512" stroke-width="3"/>
<path d="M43.8721 8.74121L44.2217 9.61719L45.1631 9.68164L50.1973 10.0264L46.3174 13.2969L45.6025 13.8994L45.8281 14.8066L47.0557 19.7334L42.8018 17.0439L42 16.5381L41.1982 17.0439L36.9434 19.7334L38.1719 14.8066L38.3975 13.8994L37.6826 13.2969L33.8018 10.0264L38.8369 9.68164L39.7783 9.61719L40.1279 8.74121L42 4.04785L43.8721 8.74121Z" fill="#FFC512" stroke="#FFC512" stroke-width="3"/>
<path d="M73.8721 8.74121L74.2217 9.61719L75.1631 9.68164L80.1973 10.0264L76.3174 13.2969L75.6025 13.8994L75.8281 14.8066L77.0557 19.7334L72.8018 17.0439L72 16.5381L71.1982 17.0439L66.9434 19.7334L68.1719 14.8066L68.3975 13.8994L67.6826 13.2969L63.8018 10.0264L68.8369 9.68164L69.7783 9.61719L70.1279 8.74121L72 4.04785L73.8721 8.74121Z" fill="#FFC512" stroke="#FFC512" stroke-width="3"/>
<path d="M103.872 8.74121L104.222 9.61719L105.163 9.68164L110.197 10.0264L106.317 13.2969L105.603 13.8994L105.828 14.8066L107.056 19.7334L102.802 17.0439L102 16.5381L101.198 17.0439L96.9434 19.7334L98.1719 14.8066L98.3975 13.8994L97.6826 13.2969L93.8018 10.0264L98.8369 9.68164L99.7783 9.61719L100.128 8.74121L102 4.04785L103.872 8.74121Z" fill="#FFC512" stroke="#FFC512" stroke-width="3"/>
<path d="M133.872 8.74121L134.222 9.61719L135.163 9.68164L140.197 10.0264L136.317 13.2969L135.603 13.8994L135.828 14.8066L137.056 19.7334L132.802 17.0439L132 16.5381L131.198 17.0439L126.943 19.7334L128.172 14.8066L128.397 13.8994L127.683 13.2969L123.802 10.0264L128.837 9.68164L129.778 9.61719L130.128 8.74121L132 4.04785L133.872 8.74121Z" fill="#FFC512" stroke="#FFC512" stroke-width="3"/>
</svg>
