<svg width="20" height="20" viewBox="0 0 20 20" fill="none" xmlns="http://www.w3.org/2000/svg">
<path d="M4.59092 18C4.4342 18 4.28389 17.9342 4.17308 17.8169C4.06226 17.6997 4 17.5408 4 17.375V3.6249C4.00002 3.51629 4.02679 3.40956 4.07769 3.31523C4.12858 3.2209 4.20183 3.14223 4.29023 3.08697C4.37863 3.0317 4.47911 3.00175 4.58179 3.00007C4.68446 2.9984 4.78577 3.02504 4.87574 3.07739L16.6941 9.95244C16.7867 10.0064 16.864 10.0857 16.9178 10.182C16.9716 10.2783 17 10.3881 17 10.4999C17 10.6118 16.9716 10.7216 16.9178 10.8179C16.864 10.9142 16.7867 10.9935 16.6941 11.0475L4.87574 17.9225C4.78849 17.9733 4.69052 18 4.59092 18Z" fill="#FCFCFC"/>
</svg>
